<?xml version="1.0" encoding="UTF-8" ?>
<!DOCTYPE svg PUBLIC "-//W3C//DTD SVG 1.1//EN" "http://www.w3.org/Graphics/SVG/1.1/DTD/svg11.dtd">
<svg width="30pt" height="30pt" viewBox="0 0 30 30" version="1.1" xmlns="http://www.w3.org/2000/svg">
<g id="#ffffffff">
<path fill="#ffffff" opacity="1.00" d=" M 9.50 0.00 L 10.85 0.00 C 17.98 0.79 20.77 9.67 17.10 15.25 C 21.17 17.37 21.21 22.46 20.25 26.36 C 19.59 28.30 17.76 29.44 15.89 30.00 L 4.74 30.00 C 2.37 29.44 0.57 27.64 0.00 25.28 L 0.00 19.75 C 0.51 17.79 1.93 16.38 3.56 15.27 C -0.08 9.79 2.51 0.94 9.50 0.00 M 7.41 2.67 C 2.13 5.57 2.80 14.40 8.42 16.55 C 13.71 18.40 18.31 11.88 16.57 7.10 C 15.70 3.23 11.05 0.47 7.41 2.67 M 5.90 28.08 C 8.90 28.30 11.94 28.32 14.95 28.04 C 20.05 27.28 20.26 18.83 15.75 17.07 C 12.38 18.81 8.35 19.40 5.15 16.91 C 0.32 18.59 0.49 27.45 5.90 28.08 Z" />
<path fill="#ffffff" opacity="1.00" d=" M 20.15 5.95 C 23.42 5.44 26.72 5.55 30.00 5.74 L 30.00 7.27 C 26.82 7.28 22.32 9.07 20.15 5.95 Z" />
<path fill="#ffffff" opacity="1.00" d=" M 20.65 11.90 C 23.38 10.32 26.95 11.49 30.00 11.44 L 30.00 12.82 C 26.98 13.42 23.88 13.34 20.84 13.01 L 20.65 11.90 Z" />
<path fill="#ffffff" opacity="1.00" d=" M 22.41 18.15 C 23.42 15.46 27.64 17.26 30.00 17.05 L 30.00 18.48 C 27.52 18.68 24.70 19.50 22.41 18.15 Z" />
<path fill="#ffffff" opacity="1.00" d=" M 22.07 24.08 C 23.60 21.19 27.46 23.14 29.99 22.69 L 30.00 21.75 L 30.00 24.18 C 27.37 24.53 24.70 24.48 22.07 24.08 Z" />
</g>
</svg>
