<?xml version="1.0" encoding="UTF-8" ?>
<!DOCTYPE svg PUBLIC "-//W3C//DTD SVG 1.1//EN" "http://www.w3.org/Graphics/SVG/1.1/DTD/svg11.dtd">
<svg width="15pt" height="42pt" viewBox="0 0 15 42" version="1.1" xmlns="http://www.w3.org/2000/svg">
<g id="#ffffffff">
<path fill="#ffffff" opacity="1.00" d=" M 4.10 0.00 L 10.85 0.00 C 11.56 5.07 11.15 10.21 11.22 15.31 C 12.98 16.30 14.60 17.55 15.00 19.66 L 15.00 42.00 L 0.00 42.00 L 0.00 19.78 C 0.33 17.60 1.98 16.31 3.78 15.31 C 3.81 10.21 3.51 5.08 4.10 0.00 M 6.24 2.60 C 6.24 3.25 6.23 4.55 6.23 5.20 C 6.87 5.20 8.13 5.20 8.77 5.20 C 8.76 4.55 8.76 3.25 8.76 2.60 C 8.13 2.60 6.87 2.60 6.24 2.60 M 6.24 7.80 C 6.24 10.47 6.24 13.13 6.24 15.80 C 6.87 15.80 8.13 15.80 8.76 15.80 C 8.76 13.13 8.76 10.47 8.77 7.80 C 8.13 7.80 6.87 7.80 6.24 7.80 M 2.66 20.15 C 2.33 26.55 2.63 32.98 2.53 39.40 C 5.86 39.40 9.20 39.40 12.53 39.40 C 12.43 33.10 12.74 26.77 12.39 20.48 C 12.19 18.31 9.67 18.32 8.04 18.36 C 6.23 18.51 3.35 17.80 2.66 20.15 Z" />
</g>
</svg>
