<?xml version="1.0" encoding="UTF-8" ?>
<!DOCTYPE svg PUBLIC "-//W3C//DTD SVG 1.1//EN" "http://www.w3.org/Graphics/SVG/1.1/DTD/svg11.dtd">
<svg width="47pt" height="70pt" viewBox="0 0 47 70" version="1.1" xmlns="http://www.w3.org/2000/svg">
<g id="#2e7fe6ff">
<path fill="#2e7fe6" opacity="1.00" d=" M 3.01 0.00 L 22.11 0.00 C 30.43 8.18 38.75 16.38 47.00 24.64 L 47.00 67.04 C 45.87 67.88 44.86 68.88 44.00 70.00 L 3.01 70.00 C 2.14 68.88 1.12 67.89 0.00 67.03 L 0.00 2.94 C 1.14 2.10 2.16 1.12 3.01 0.00 M 3.83 3.81 C 3.81 24.60 3.82 45.40 3.83 66.19 C 16.94 66.21 30.06 66.21 43.17 66.19 C 43.21 53.62 43.13 41.05 43.21 28.48 C 36.50 28.26 29.77 28.52 23.06 28.36 C 20.90 28.46 18.56 26.95 18.48 24.64 C 18.30 17.70 18.48 10.75 18.41 3.80 C 13.55 3.80 8.69 3.79 3.83 3.81 M 22.23 5.45 C 22.25 11.83 22.20 18.20 22.26 24.57 C 28.71 24.63 35.15 24.59 41.60 24.60 C 35.14 18.22 28.68 11.84 22.23 5.45 Z" />
<path fill="#2e7fe6" opacity="1.00" d=" M 6.71 34.61 C 7.66 34.60 9.57 34.60 10.52 34.60 C 10.52 35.55 10.52 37.45 10.52 38.40 C 9.57 38.40 7.67 38.40 6.71 38.40 C 6.71 37.45 6.71 35.55 6.71 34.61 Z" />
<path fill="#2e7fe6" opacity="1.00" d=" M 13.85 38.14 C 12.97 36.51 13.85 34.17 15.99 34.60 C 23.63 34.64 31.28 34.51 38.91 34.66 C 41.32 35.18 40.29 39.07 37.95 38.40 C 29.92 38.26 21.86 38.72 13.85 38.14 Z" />
<path fill="#2e7fe6" opacity="1.00" d=" M 6.71 43.61 C 7.66 43.60 9.57 43.60 10.52 43.60 C 10.52 44.93 10.53 46.26 10.53 47.60 C 9.26 47.60 7.98 47.59 6.70 47.59 C 6.71 46.59 6.71 44.60 6.71 43.61 Z" />
<path fill="#2e7fe6" opacity="1.00" d=" M 14.07 44.20 C 15.54 43.25 17.40 43.73 19.05 43.58 C 25.68 43.75 32.35 43.32 38.96 43.80 C 40.99 44.18 40.60 47.50 38.57 47.47 C 30.88 47.71 23.15 47.65 15.46 47.50 C 13.73 47.66 12.73 45.32 14.07 44.20 Z" />
<path fill="#2e7fe6" opacity="1.00" d=" M 6.71 52.81 C 7.67 52.80 9.57 52.80 10.52 52.80 C 10.52 54.07 10.53 55.33 10.53 56.60 C 9.25 56.60 7.98 56.59 6.70 56.59 C 6.70 55.64 6.71 53.75 6.71 52.81 Z" />
<path fill="#2e7fe6" opacity="1.00" d=" M 14.10 53.24 C 15.55 52.41 17.33 52.94 18.92 52.79 C 25.60 52.88 32.29 52.68 38.97 52.87 C 40.98 53.26 40.62 56.58 38.55 56.50 C 30.85 56.68 23.12 56.64 15.41 56.52 C 13.73 56.70 12.71 54.25 14.10 53.24 Z" />
</g>
</svg>
