<?xml version="1.0" encoding="UTF-8" ?>
<!DOCTYPE svg PUBLIC "-//W3C//DTD SVG 1.1//EN" "http://www.w3.org/Graphics/SVG/1.1/DTD/svg11.dtd">
<svg width="60pt" height="68pt" viewBox="0 0 60 68" version="1.1" xmlns="http://www.w3.org/2000/svg">
<g id="#2e7fe6ff">
<path fill="#2e7fe6" opacity="1.00" d=" M 28.29 0.84 C 29.44 -0.10 30.59 -0.09 31.72 0.87 C 32.01 3.62 31.88 6.40 31.89 9.16 C 36.06 9.75 40.03 11.28 43.40 13.83 C 45.54 11.96 47.26 9.40 49.94 8.26 C 50.76 8.76 51.56 9.28 52.35 9.84 C 50.46 12.20 48.38 14.40 46.20 16.49 C 48.75 19.96 50.46 23.95 51.03 28.22 C 54.03 28.13 57.09 27.79 60.00 28.69 L 60.00 31.03 C 57.25 32.67 53.92 31.83 50.90 32.02 C 49.83 36.08 48.19 39.96 46.37 43.73 C 48.21 45.54 50.21 47.21 51.72 49.31 C 52.26 50.87 50.79 51.73 49.43 51.68 C 47.51 50.35 45.96 48.59 44.30 46.97 C 42.91 50.26 41.64 53.61 40.01 56.81 C 33.57 56.51 26.99 57.35 20.64 56.43 C 18.51 53.53 17.45 50.04 15.89 46.83 C 13.68 48.39 11.31 53.44 8.30 50.74 C 8.28 47.52 12.06 45.87 13.80 43.47 C 11.74 39.88 10.14 36.04 9.18 32.01 C 6.12 31.98 2.94 32.35 0.00 31.28 L 0.00 29.15 C 2.72 27.54 6.07 28.34 9.07 27.97 C 9.67 23.78 11.35 19.85 13.91 16.49 C 11.84 14.44 9.43 12.62 8.01 10.02 C 8.52 8.71 9.48 8.20 10.87 8.49 C 12.95 10.09 14.72 12.03 16.62 13.84 C 19.98 11.29 23.95 9.77 28.11 9.16 C 28.12 6.39 27.99 3.60 28.29 0.84 M 13.34 33.01 C 15.43 40.15 20.34 46.01 22.84 53.00 C 27.82 52.99 32.80 53.01 37.78 52.99 C 40.02 45.28 45.88 39.00 47.09 30.97 C 48.15 21.38 39.39 12.64 29.92 12.97 C 19.86 12.67 10.73 23.03 13.34 33.01 Z" />
<path fill="#2e7fe6" opacity="1.00" d=" M 17.19 32.17 C 19.26 28.97 21.41 25.79 24.01 23.00 C 24.48 23.04 25.41 23.11 25.88 23.15 C 27.32 25.61 27.86 28.47 28.81 31.14 C 30.54 29.18 32.01 26.95 34.05 25.28 C 35.35 24.61 36.32 25.98 37.16 26.73 C 39.05 28.76 41.22 30.60 42.63 33.01 C 42.24 34.32 41.37 34.94 40.04 34.88 C 38.09 33.47 36.59 31.56 34.94 29.84 C 32.88 32.18 30.88 34.57 28.91 36.99 C 25.03 36.63 25.63 31.57 24.17 28.90 C 22.96 30.42 21.90 32.09 20.45 33.41 C 19.32 34.66 18.05 32.73 17.19 32.17 Z" />
<path fill="#2e7fe6" opacity="1.00" d=" M 23.26 59.48 C 27.31 58.45 31.77 59.13 35.98 59.10 C 38.20 59.28 38.08 62.68 35.86 62.70 C 31.96 62.89 28.04 62.89 24.15 62.70 C 22.41 62.82 21.60 60.11 23.26 59.48 Z" />
<path fill="#2e7fe6" opacity="1.00" d=" M 26.75 64.64 C 29.01 63.93 31.83 63.73 33.91 65.08 C 33.88 66.06 33.74 67.04 33.50 68.00 L 26.70 68.00 C 26.31 66.96 25.27 65.35 26.75 64.64 Z" />
</g>
</svg>
