<?xml version="1.0" encoding="UTF-8" ?>
<!DOCTYPE svg PUBLIC "-//W3C//DTD SVG 1.1//EN" "http://www.w3.org/Graphics/SVG/1.1/DTD/svg11.dtd">
<svg width="66pt" height="66pt" viewBox="0 0 66 66" version="1.1" xmlns="http://www.w3.org/2000/svg">
<g id="#0080eaff">
<path fill="#0080ea" opacity="1.00" d=" M 3.71 0.00 L 62.27 0.00 C 63.55 0.97 64.53 2.33 66.00 3.06 L 66.00 53.79 C 65.36 55.37 64.37 57.11 62.53 57.42 C 59.00 57.85 55.43 57.51 51.88 57.60 C 51.89 60.40 51.88 63.20 51.88 66.00 L 51.85 66.00 C 47.35 63.54 42.88 61.02 38.40 58.51 C 37.08 57.71 35.53 57.54 34.02 57.56 C 24.34 57.60 14.67 57.64 5.00 57.57 C 2.57 57.81 0.69 55.98 0.00 53.80 L 0.00 3.23 C 1.28 2.20 2.46 1.06 3.71 0.00 M 4.48 4.41 C 4.49 20.69 4.41 36.98 4.52 53.25 C 15.60 53.21 26.68 53.09 37.75 53.30 C 41.12 54.71 44.15 56.83 47.40 58.49 C 47.40 56.73 47.41 54.97 47.41 53.21 C 52.10 53.22 56.78 53.15 61.47 53.26 C 61.60 36.98 61.51 20.69 61.52 4.41 C 42.51 4.38 23.49 4.40 4.48 4.41 Z" />
<path fill="#0080ea" opacity="1.00" d=" M 16.76 26.80 C 18.82 26.81 20.88 26.81 22.94 26.80 C 22.93 28.87 22.94 30.93 22.95 33.00 C 20.88 32.99 18.82 32.99 16.76 33.00 C 16.77 30.93 16.77 28.87 16.76 26.80 Z" />
<path fill="#0080ea" opacity="1.00" d=" M 29.94 26.80 C 31.98 26.81 34.02 26.81 36.06 26.80 C 36.05 28.87 36.05 30.93 36.06 33.00 C 34.02 32.99 31.98 32.99 29.94 33.00 C 29.95 30.93 29.95 28.87 29.94 26.80 Z" />
<path fill="#0080ea" opacity="1.00" d=" M 43.06 26.80 C 45.12 26.81 47.18 26.81 49.24 26.80 C 49.23 28.87 49.23 30.93 49.24 33.00 C 47.18 32.99 45.11 32.99 43.05 33.00 C 43.06 30.93 43.06 28.87 43.06 26.80 Z" />
</g>
</svg>
