<?xml version="1.0" encoding="UTF-8" ?>
<!DOCTYPE svg PUBLIC "-//W3C//DTD SVG 1.1//EN" "http://www.w3.org/Graphics/SVG/1.1/DTD/svg11.dtd">
<svg width="30pt" height="28pt" viewBox="0 0 30 28" version="1.1" xmlns="http://www.w3.org/2000/svg">
<g id="#f8f8f8ff">
<path fill="#f8f8f8" opacity="1.00" d=" M 9.11 0.00 L 10.50 0.00 C 10.91 1.42 12.52 2.97 11.56 4.47 C 10.10 5.65 8.39 6.67 7.45 8.36 C 6.65 10.71 6.75 13.24 6.55 15.68 C 8.23 15.54 9.90 15.41 11.58 15.31 C 11.59 19.28 11.59 23.24 11.58 27.20 C 7.96 27.20 4.33 27.20 0.71 27.20 C 0.84 21.48 0.28 15.69 1.41 10.05 C 2.32 5.72 5.58 2.19 9.53 0.36 C 9.43 0.27 9.22 0.09 9.11 0.00 Z" />
<path fill="#f8f8f8" opacity="1.00" d=" M 19.35 8.46 C 20.69 4.61 23.92 1.82 27.46 0.01 C 28.29 1.32 29.09 2.65 29.91 3.97 C 25.31 5.80 23.77 10.85 23.71 15.39 C 25.51 15.40 27.30 15.40 29.10 15.40 C 29.13 19.33 29.12 23.26 29.11 27.20 C 25.47 27.20 21.82 27.20 18.18 27.19 C 18.36 20.95 17.56 14.54 19.35 8.46 Z" />
</g>
</svg>
