<?xml version="1.0" encoding="UTF-8" ?>
<!DOCTYPE svg PUBLIC "-//W3C//DTD SVG 1.1//EN" "http://www.w3.org/Graphics/SVG/1.1/DTD/svg11.dtd">
<svg width="44pt" height="41pt" viewBox="0 0 44 41" version="1.1" xmlns="http://www.w3.org/2000/svg">
<g id="#16181efd">
<path fill="#16181e" opacity="1.00" d=" M 21.63 0.00 L 22.34 0.00 C 25.36 2.70 28.15 5.65 30.99 8.53 C 31.31 6.41 30.33 3.26 33.22 2.65 C 33.68 5.45 33.73 8.29 33.67 11.12 C 37.04 14.65 40.68 17.92 44.00 21.51 L 44.00 23.40 C 40.96 22.66 39.10 20.07 36.98 18.00 C 32.00 13.00 27.00 8.03 22.00 3.05 C 16.81 8.16 11.61 13.27 6.44 18.42 C 4.52 20.25 2.83 22.68 0.00 23.10 L 0.00 21.42 C 7.11 14.19 14.32 7.03 21.63 0.00 Z" />
<path fill="#16181e" opacity="1.00" d=" M 35.49 20.29 C 36.03 20.32 37.10 20.38 37.64 20.41 C 38.31 27.24 37.91 34.15 37.77 41.00 L 24.36 41.00 C 23.96 38.29 23.94 35.54 23.96 32.80 C 22.65 32.81 21.35 32.81 20.04 32.80 C 20.04 35.54 19.95 38.27 19.80 41.00 L 6.33 41.00 C 5.78 34.44 5.83 27.79 6.23 21.22 C 6.76 21.05 7.81 20.71 8.34 20.54 C 8.72 26.55 8.45 32.58 8.54 38.59 C 11.51 38.60 14.48 38.60 17.45 38.59 C 17.45 35.90 17.49 33.20 17.52 30.51 C 20.50 30.09 23.51 30.09 26.49 30.52 C 26.51 33.21 26.54 35.90 26.55 38.59 C 29.52 38.60 32.49 38.60 35.46 38.59 C 35.48 32.49 35.45 26.39 35.49 20.29 Z" />
</g>
</svg>
