<?xml version="1.0" encoding="UTF-8" ?>
<!DOCTYPE svg PUBLIC "-//W3C//DTD SVG 1.1//EN" "http://www.w3.org/Graphics/SVG/1.1/DTD/svg11.dtd">
<svg width="30pt" height="27pt" viewBox="0 0 30 27" version="1.1" xmlns="http://www.w3.org/2000/svg">
<g id="#ffffffff">
<path fill="#ffffff" opacity="1.00" d=" M 8.61 0.00 L 21.14 0.00 C 22.98 0.39 23.90 1.95 24.70 3.48 C 26.47 3.65 28.24 3.86 30.00 4.11 L 30.00 7.67 C 29.54 10.79 26.67 12.48 23.79 12.89 C 22.15 16.17 19.52 18.83 15.96 19.94 C 15.96 21.65 15.95 23.37 15.93 25.08 C 17.53 25.23 19.76 24.65 19.76 27.00 L 10.51 27.00 C 10.55 26.55 10.61 25.66 10.64 25.21 C 11.79 25.20 12.93 25.20 14.07 25.19 C 14.05 23.44 14.04 21.69 14.04 19.94 C 10.46 18.86 7.93 16.10 6.20 12.89 C 3.37 12.47 0.61 10.86 0.00 7.85 L 0.00 4.15 C 1.76 3.86 3.52 3.64 5.29 3.47 C 6.08 2.03 6.97 0.56 8.61 0.00 M 8.20 2.28 C 6.53 7.10 7.24 14.02 12.01 17.08 C 13.99 18.43 16.72 18.20 18.55 16.70 C 21.55 14.46 22.78 10.60 22.57 6.96 C 22.58 5.05 23.03 1.48 20.04 1.81 C 16.12 2.05 11.97 1.20 8.20 2.28 M 1.79 5.70 C 1.47 8.36 3.06 10.44 5.61 11.01 C 5.62 9.10 5.62 7.18 5.64 5.26 C 4.37 5.49 3.08 5.63 1.79 5.70 M 24.36 5.26 C 24.38 7.18 24.38 9.10 24.39 11.02 C 26.94 10.44 28.53 8.35 28.21 5.69 C 26.92 5.63 25.63 5.49 24.36 5.26 Z" />
</g>
</svg>
