<?xml version="1.0" encoding="UTF-8" ?>
<!DOCTYPE svg PUBLIC "-//W3C//DTD SVG 1.1//EN" "http://www.w3.org/Graphics/SVG/1.1/DTD/svg11.dtd">
<svg width="30pt" height="28pt" viewBox="0 0 30 28" version="1.1" xmlns="http://www.w3.org/2000/svg">
<g id="#ffffffff">
<path fill="#ffffff" opacity="1.00" d=" M 10.44 0.00 L 19.38 0.00 C 20.18 1.14 20.72 2.39 21.02 3.76 C 24.14 3.95 28.27 2.87 30.00 6.31 L 30.00 25.28 C 28.74 25.77 27.71 26.75 27.17 28.00 L 2.98 28.00 C 2.17 26.87 1.17 25.86 0.00 25.08 L 0.00 6.52 C 1.47 2.81 5.84 3.96 8.96 3.76 C 9.37 2.48 9.86 1.22 10.44 0.00 M 10.77 3.66 C 13.59 3.85 16.43 3.85 19.26 3.65 C 18.94 3.21 18.30 2.32 17.98 1.88 C 15.54 2.05 11.84 0.60 10.77 3.66 M 2.30 6.20 C 1.51 8.08 2.01 10.22 1.86 12.20 C 10.62 12.20 19.38 12.20 28.14 12.20 C 27.97 10.21 28.51 8.04 27.67 6.17 C 26.34 5.20 24.54 5.76 23.00 5.58 C 17.66 5.61 12.32 5.61 6.98 5.58 C 5.44 5.76 3.62 5.18 2.30 6.20 M 1.89 14.00 C 1.95 17.66 1.71 21.32 2.01 24.97 C 2.24 25.21 2.71 25.68 2.94 25.92 C 10.97 26.06 19.02 26.06 27.05 25.92 C 27.28 25.69 27.75 25.23 27.99 25.00 C 28.29 21.34 28.05 17.67 28.11 14.00 C 25.05 14.00 21.98 14.00 18.92 14.00 C 18.83 16.21 17.53 18.83 14.92 18.58 C 12.37 18.73 11.19 16.15 11.08 14.00 C 8.01 14.00 4.95 14.00 1.89 14.00 M 12.72 14.15 C 13.25 15.19 13.55 16.74 15.02 16.71 C 16.53 16.75 16.67 15.12 17.22 14.09 C 15.72 14.06 14.22 14.08 12.72 14.15 Z" />
</g>
</svg>
