<?xml version="1.0" encoding="UTF-8" ?>
<!DOCTYPE svg PUBLIC "-//W3C//DTD SVG 1.1//EN" "http://www.w3.org/Graphics/SVG/1.1/DTD/svg11.dtd">
<svg width="36pt" height="40pt" viewBox="0 0 36 40" version="1.1" xmlns="http://www.w3.org/2000/svg">
<g id="#2e7fe6fe">
<path fill="#2e7fe6" opacity="1.00" d=" M 0.26 0.00 L 12.12 0.00 C 16.78 4.62 21.25 9.41 25.84 14.10 C 25.82 17.01 25.82 19.91 25.81 22.81 C 25.29 22.81 24.24 22.81 23.71 22.81 C 23.71 20.60 23.71 18.40 23.70 16.20 C 19.53 16.03 15.28 16.65 11.17 15.83 C 10.96 15.55 10.54 15.00 10.33 14.72 C 9.81 10.57 10.23 6.37 10.12 2.20 C 7.45 2.20 4.79 2.20 2.12 2.20 C 2.11 14.07 2.11 25.93 2.12 37.80 C 6.32 37.80 10.52 37.80 14.71 37.80 C 14.74 38.35 14.80 39.45 14.83 40.00 L 0.38 40.00 C 0.29 39.91 0.10 39.74 0.00 39.66 L 0.00 0.44 C 0.06 0.33 0.19 0.11 0.26 0.00 M 12.24 3.17 C 12.23 6.78 12.23 10.38 12.23 13.99 C 15.75 14.00 19.26 14.00 22.78 13.99 C 19.26 10.39 15.77 6.76 12.24 3.17 Z" />
<path fill="#2e7fe6" opacity="1.00" d=" M 4.01 19.00 C 9.91 18.67 15.87 18.63 21.77 19.02 C 21.85 19.50 22.01 20.45 22.08 20.92 C 15.95 21.04 9.82 21.07 3.69 20.90 C 3.77 20.43 3.93 19.48 4.01 19.00 Z" />
<path fill="#2e7fe6" opacity="1.00" d=" M 23.81 26.85 C 26.23 24.56 28.19 21.71 31.06 19.95 C 33.22 20.50 34.50 22.67 36.00 24.19 L 36.00 25.32 C 32.66 29.19 28.91 32.69 25.42 36.43 C 23.43 38.72 20.34 39.31 17.54 40.00 L 16.50 40.00 C 16.73 38.29 16.93 36.56 17.46 34.91 C 18.41 31.46 21.52 29.37 23.81 26.85 M 31.23 22.18 C 28.78 23.58 31.70 25.22 32.82 26.32 C 34.46 24.57 32.28 23.37 31.23 22.18 M 28.42 25.13 C 25.20 29.16 19.92 31.96 18.94 37.39 C 24.39 36.46 26.99 30.93 30.94 27.66 C 30.11 26.81 29.27 25.97 28.42 25.13 Z" />
<path fill="#2e7fe6" opacity="1.00" d=" M 3.76 23.94 C 9.75 23.44 15.95 23.25 21.90 24.00 C 23.18 26.06 20.19 25.84 19.05 25.82 C 14.01 25.73 8.96 25.96 3.93 25.69 C 3.88 25.25 3.80 24.38 3.76 23.94 Z" />
<path fill="#2e7fe6" opacity="1.00" d=" M 3.35 28.89 C 6.71 28.41 10.11 28.58 13.48 28.72 C 13.69 31.42 10.59 30.39 9.03 30.65 C 7.06 30.35 4.01 31.56 3.35 28.89 Z" />
<path fill="#2e7fe6" opacity="1.00" d=" M 3.22 33.93 C 6.52 33.26 10.26 32.83 13.46 33.96 C 13.37 36.33 10.49 35.39 8.99 35.65 C 6.97 35.47 4.22 36.32 3.22 33.93 Z" />
</g>
</svg>
