<?xml version="1.0" encoding="UTF-8" ?>
<!DOCTYPE svg PUBLIC "-//W3C//DTD SVG 1.1//EN" "http://www.w3.org/Graphics/SVG/1.1/DTD/svg11.dtd">
<svg width="26pt" height="44pt" viewBox="0 0 26 44" version="1.1" xmlns="http://www.w3.org/2000/svg">
<g id="#0080e9fe">
<path fill="#0080e9" opacity="1.00" d=" M 12.19 0.00 L 13.95 0.00 C 16.18 0.42 18.17 1.72 19.38 3.64 C 21.86 7.29 20.56 11.91 20.88 16.02 C 20.62 19.86 21.73 24.12 19.51 27.57 C 18.01 30.14 14.94 31.81 11.96 31.29 C 8.03 30.79 5.15 26.93 5.14 23.08 C 5.11 18.07 5.09 13.06 5.15 8.05 C 5.27 4.17 8.30 0.54 12.19 0.00 M 9.94 4.02 C 6.88 6.53 8.05 10.94 7.84 14.38 C 11.28 14.41 14.72 14.41 18.16 14.38 C 17.94 11.12 19.01 7.21 16.60 4.52 C 14.99 2.55 11.79 2.20 9.94 4.02 M 7.84 17.01 C 8.05 20.22 7.05 23.95 9.23 26.69 C 10.78 28.96 14.38 29.34 16.24 27.25 C 19.06 24.62 17.96 20.43 18.17 17.01 C 14.72 16.99 11.28 16.99 7.84 17.01 Z" />
<path fill="#0080e9" opacity="1.00" d=" M 0.00 18.45 C 1.52 17.32 3.11 18.09 2.77 20.02 C 2.56 23.63 3.07 27.55 5.69 30.27 C 8.83 33.98 14.79 34.72 18.67 31.74 C 22.39 29.10 23.65 24.33 23.23 19.98 C 22.85 18.11 24.56 17.44 26.00 18.38 L 26.00 24.01 C 25.35 30.10 20.58 35.66 14.35 36.36 C 14.34 37.97 14.34 39.57 14.37 41.17 C 16.25 41.46 18.51 40.50 19.99 42.04 C 19.82 42.53 19.50 43.51 19.34 44.00 L 6.69 44.00 C 6.51 43.51 6.14 42.53 5.95 42.04 C 7.46 40.54 9.69 41.45 11.57 41.17 C 11.60 39.57 11.60 37.96 11.60 36.36 C 5.26 35.59 0.30 29.78 0.00 23.49 L 0.00 18.45 Z" />
</g>
</svg>
