<?xml version="1.0" encoding="UTF-8" ?>
<!DOCTYPE svg PUBLIC "-//W3C//DTD SVG 1.1//EN" "http://www.w3.org/Graphics/SVG/1.1/DTD/svg11.dtd">
<svg width="27pt" height="41pt" viewBox="0 0 27 41" version="1.1" xmlns="http://www.w3.org/2000/svg">
<g id="#0080eaff">
<path fill="#0080ea" opacity="1.00" d=" M 1.82 0.00 L 12.65 0.00 C 17.49 4.77 22.28 9.59 27.00 14.48 L 27.00 40.12 L 26.20 39.80 C 25.95 40.10 25.43 40.70 25.18 41.00 L 1.75 41.00 C 1.51 40.69 1.03 40.07 0.78 39.77 L 0.00 40.10 L 0.00 0.88 L 0.80 1.20 C 1.05 0.90 1.57 0.30 1.82 0.00 M 2.25 2.21 C 2.23 14.40 2.23 26.60 2.25 38.79 C 9.75 38.81 17.25 38.81 24.75 38.79 C 24.78 31.39 24.75 24.00 24.77 16.61 C 20.30 16.09 15.31 17.64 11.16 15.80 C 9.87 11.49 10.93 6.70 10.59 2.20 C 7.81 2.19 5.03 2.20 2.25 2.21 M 12.76 3.21 C 12.76 6.94 12.76 10.67 12.78 14.39 C 16.47 14.41 20.16 14.40 23.85 14.40 C 20.17 10.66 16.47 6.94 12.76 3.21 Z" />
<path fill="#0080ea" opacity="1.00" d=" M 4.11 20.22 C 5.60 18.99 7.16 21.53 5.78 22.59 C 4.37 23.82 2.73 21.23 4.11 20.22 Z" />
<path fill="#0080ea" opacity="1.00" d=" M 8.31 20.51 C 12.99 19.95 17.90 20.03 22.60 20.47 L 23.27 21.15 C 23.10 21.48 22.75 22.14 22.58 22.46 C 17.88 22.71 13.14 22.68 8.44 22.49 C 8.41 21.99 8.34 21.00 8.31 20.51 Z" />
<path fill="#0080ea" opacity="1.00" d=" M 4.14 25.87 C 5.73 25.33 6.28 25.89 5.77 27.57 C 4.17 28.10 3.62 27.53 4.14 25.87 Z" />
<path fill="#0080ea" opacity="1.00" d=" M 7.50 25.90 C 12.77 25.41 18.09 25.44 23.36 25.87 C 23.17 26.33 22.79 27.24 22.60 27.70 C 17.85 27.87 13.07 27.91 8.32 27.67 C 8.12 27.22 7.71 26.34 7.50 25.90 Z" />
<path fill="#0080ea" opacity="1.00" d=" M 4.10 31.25 C 5.73 30.70 6.29 31.25 5.80 32.89 C 4.18 33.44 3.61 32.89 4.10 31.25 Z" />
<path fill="#0080ea" opacity="1.00" d=" M 7.72 31.07 C 12.83 30.95 17.95 30.98 23.06 31.05 C 22.99 31.52 22.85 32.47 22.78 32.94 C 17.93 33.30 12.92 33.53 8.12 32.83 C 8.02 32.39 7.82 31.51 7.72 31.07 Z" />
</g>
</svg>
