<?xml version="1.0" encoding="UTF-8" ?>
<!DOCTYPE svg PUBLIC "-//W3C//DTD SVG 1.1//EN" "http://www.w3.org/Graphics/SVG/1.1/DTD/svg11.dtd">
<svg width="20pt" height="20pt" viewBox="0 0 20 20" version="1.1" xmlns="http://www.w3.org/2000/svg">
<g id="#000000d8">
<path fill="#000000" opacity="0.85" d=" M 10.81 0.00 L 13.17 0.00 C 16.42 0.88 18.73 3.34 20.00 6.37 L 20.00 9.21 C 16.94 9.21 13.87 9.21 10.81 9.22 C 10.82 6.14 10.81 3.07 10.81 0.00 M 12.05 8.01 C 14.34 7.97 16.64 7.95 18.93 7.94 C 18.18 4.44 15.52 2.21 12.34 0.90 C 12.17 3.26 11.97 5.63 12.05 8.01 Z" />
<path fill="#000000" opacity="0.85" d=" M 0.00 9.45 C 1.27 5.39 4.97 2.79 9.16 2.66 C 9.18 5.35 9.20 8.04 9.23 10.73 C 11.95 10.77 14.67 10.80 17.39 10.82 C 17.22 14.99 14.67 18.64 10.69 20.00 L 6.78 20.00 C 3.54 19.11 1.27 16.64 0.00 13.62 L 0.00 9.45 M 2.46 7.54 C -0.32 11.40 2.09 17.41 6.74 18.36 C 11.08 19.70 15.15 16.17 16.11 12.08 C 13.39 12.06 10.68 12.01 7.97 12.00 C 7.97 9.35 7.90 6.70 7.88 4.06 C 5.88 4.87 3.53 5.46 2.46 7.54 Z" />
</g>
</svg>
