<?xml version="1.0" encoding="UTF-8" ?>
<!DOCTYPE svg PUBLIC "-//W3C//DTD SVG 1.1//EN" "http://www.w3.org/Graphics/SVG/1.1/DTD/svg11.dtd">
<svg width="27pt" height="42pt" viewBox="0 0 27 42" version="1.1" xmlns="http://www.w3.org/2000/svg">
<g id="#2e7fe6fe">
<path fill="#2e7fe6" opacity="1.00" d=" M 12.41 0.00 L 14.44 0.00 C 19.83 0.55 23.51 6.86 20.82 11.71 C 18.25 17.16 9.72 17.59 6.61 12.44 C 3.25 7.67 6.76 0.68 12.41 0.00 M 11.22 3.06 C 7.62 4.50 6.67 9.79 9.80 12.21 C 12.81 15.06 18.36 13.18 19.03 9.11 C 20.02 4.91 15.04 1.16 11.22 3.06 Z" />
<path fill="#2e7fe6" opacity="1.00" d=" M 0.00 27.38 C 0.55 22.37 4.90 17.96 9.99 17.67 C 12.94 17.49 15.95 17.38 18.87 17.96 C 23.18 19.00 26.39 22.89 27.00 27.23 L 27.00 40.32 C 25.82 40.13 25.18 40.69 25.09 42.00 L 1.67 42.00 C 1.90 40.68 1.34 40.10 0.00 40.25 L 0.00 27.38 M 2.96 26.07 C 2.16 30.46 2.76 34.96 2.60 39.39 C 9.87 39.40 17.14 39.40 24.41 39.39 C 24.36 35.29 24.56 31.17 24.24 27.08 C 23.79 23.19 20.08 20.67 16.49 19.99 C 15.83 20.87 15.17 21.75 14.51 22.63 C 15.25 26.66 15.91 30.71 16.59 34.75 C 15.55 35.88 14.51 37.01 13.47 38.14 C 12.45 37.00 11.44 35.87 10.42 34.74 C 11.08 30.70 11.75 26.66 12.48 22.63 C 11.84 21.76 11.20 20.89 10.56 20.01 C 7.18 20.49 3.95 22.69 2.96 26.07 Z" />
</g>
</svg>
