<?xml version="1.0" encoding="UTF-8" ?>
<!DOCTYPE svg PUBLIC "-//W3C//DTD SVG 1.1//EN" "http://www.w3.org/Graphics/SVG/1.1/DTD/svg11.dtd">
<svg width="43pt" height="69pt" viewBox="0 0 43 69" version="1.1" xmlns="http://www.w3.org/2000/svg">
<g id="#2e7fe6ff">
<path fill="#2e7fe6" opacity="1.00" d=" M 20.67 0.00 L 22.03 0.00 C 26.37 0.24 30.48 2.65 32.68 6.42 C 36.70 12.72 34.02 21.98 27.25 25.17 C 20.29 28.82 10.84 24.62 8.98 16.97 C 6.41 9.23 12.55 0.39 20.67 0.00 M 18.46 4.72 C 12.11 6.80 10.53 16.11 15.79 20.21 C 20.62 24.70 29.34 21.47 30.25 14.99 C 31.88 8.51 24.69 2.08 18.46 4.72 Z" />
<path fill="#2e7fe6" opacity="1.00" d=" M 9.06 31.14 C 14.16 28.07 20.40 28.82 26.09 28.86 C 34.82 28.98 42.38 36.64 43.00 45.25 L 43.00 65.74 C 41.77 66.71 40.63 67.79 39.63 69.00 L 3.26 69.00 C 2.24 67.99 1.24 66.92 0.00 66.18 L 0.00 44.97 C 0.44 39.19 4.13 34.02 9.06 31.14 M 4.18 45.92 C 4.02 52.21 4.16 58.50 4.12 64.80 C 15.71 64.80 27.29 64.80 38.88 64.80 C 38.86 58.53 38.84 52.26 38.80 46.00 C 38.73 39.23 32.75 33.62 26.21 32.90 C 25.21 34.30 24.18 35.67 23.14 37.04 C 24.27 43.69 25.32 50.34 26.44 56.99 C 24.80 58.91 23.16 60.83 21.46 62.70 C 19.82 60.81 18.20 58.90 16.56 57.02 C 17.67 50.36 18.75 43.69 19.85 37.02 C 18.82 35.66 17.78 34.29 16.79 32.89 C 10.21 33.58 4.41 39.20 4.18 45.92 Z" />
</g>
</svg>
