<?xml version="1.0" encoding="UTF-8" ?>
<!DOCTYPE svg PUBLIC "-//W3C//DTD SVG 1.1//EN" "http://www.w3.org/Graphics/SVG/1.1/DTD/svg11.dtd">
<svg width="188pt" height="47pt" viewBox="0 0 188 47" version="1.1" xmlns="http://www.w3.org/2000/svg">
<g id="#2e7fe6ff">
<path fill="#2e7fe6" opacity="1.00" d=" M 20.00 0.80 C 76.00 0.80 132.00 0.80 188.00 0.80 L 188.00 31.80 C 186.33 31.80 184.67 31.80 183.00 31.80 C 183.00 23.13 183.00 14.47 183.00 5.80 C 128.67 5.80 74.33 5.80 20.00 5.80 C 20.00 4.13 20.00 2.47 20.00 0.80 Z" />
<path fill="#2e7fe6" opacity="1.00" d=" M 0.00 15.80 C 1.67 15.80 3.33 15.80 5.00 15.80 C 5.00 24.47 5.00 33.13 5.00 41.80 C 61.01 41.80 117.03 41.80 173.04 41.80 C 173.00 43.53 172.95 45.27 172.89 47.00 L 0.00 47.00 L 0.00 15.80 Z" />
</g>
<g id="#16181eff">
<path fill="#16181e" opacity="1.00" d=" M 27.53 16.12 C 28.56 16.07 29.60 16.03 30.64 15.98 C 32.63 21.32 34.45 26.71 36.55 32.01 C 35.68 32.01 33.92 32.00 33.05 31.99 C 32.71 31.00 32.36 30.00 32.02 29.00 C 30.11 29.00 28.20 29.00 26.29 29.01 C 25.96 30.01 25.62 31.01 25.29 32.01 C 24.43 32.00 22.70 31.99 21.84 31.99 C 23.74 26.70 25.73 21.44 27.53 16.12 M 27.22 25.98 C 28.19 25.99 30.14 26.00 31.11 26.00 C 30.45 24.00 29.79 22.00 29.12 20.01 C 28.49 22.00 27.86 23.99 27.22 25.98 Z" />
<path fill="#16181e" opacity="1.00" d=" M 42.61 31.97 C 34.89 30.31 35.65 15.85 43.98 15.95 C 47.31 15.70 49.65 18.48 50.58 21.38 C 49.82 21.40 48.32 21.45 47.57 21.47 C 46.40 19.42 43.80 17.95 41.71 19.70 C 40.31 22.22 40.18 25.75 41.69 28.25 C 43.75 30.10 46.42 28.57 47.58 26.52 C 48.31 26.55 49.77 26.61 50.50 26.63 C 49.73 30.18 46.28 32.80 42.61 31.97 Z" />
<path fill="#16181e" opacity="1.00" d=" M 58.01 32.05 C 49.34 31.96 49.34 16.06 58.02 15.96 C 61.49 15.61 64.01 18.47 64.87 21.56 C 61.47 22.62 60.27 18.04 56.98 19.03 C 54.22 20.57 54.91 24.39 55.25 26.99 C 56.25 30.19 60.77 29.37 61.68 26.48 C 62.46 26.53 64.03 26.64 64.81 26.69 C 63.87 29.68 61.39 32.38 58.01 32.05 Z" />
<path fill="#16181e" opacity="1.00" d=" M 70.29 16.45 C 73.54 14.96 77.72 16.76 78.89 20.13 C 80.83 24.74 78.85 32.09 72.93 32.05 C 64.98 32.33 63.67 19.24 70.29 16.45 M 71.32 19.33 C 68.82 20.86 69.21 24.48 69.81 26.93 C 70.65 29.68 75.02 29.79 75.82 26.95 C 77.33 23.86 75.84 17.32 71.32 19.33 Z" />
<path fill="#16181e" opacity="1.00" d=" M 81.75 16.00 C 82.56 16.00 84.19 16.00 85.01 16.00 C 85.05 19.67 84.79 23.36 85.13 27.03 C 85.13 29.19 87.88 28.74 89.27 29.37 C 91.57 25.29 90.19 20.44 90.53 16.00 C 91.33 16.00 92.93 16.00 93.73 16.01 C 93.62 20.20 94.08 24.44 93.42 28.59 C 91.63 33.44 83.02 33.21 81.94 27.99 C 81.47 24.01 81.81 20.00 81.75 16.00 Z" />
<path fill="#16181e" opacity="1.00" d=" M 96.40 16.00 C 97.47 16.00 98.55 16.01 99.62 16.02 C 101.70 19.50 103.77 22.98 105.84 26.47 C 105.87 22.98 105.86 19.49 105.87 16.00 C 106.69 16.00 108.32 16.00 109.13 16.00 C 109.13 21.33 109.13 26.66 109.13 32.00 C 108.32 32.00 106.71 32.00 105.90 32.00 C 103.82 28.50 101.74 24.99 99.63 21.51 C 99.58 25.00 99.60 28.50 99.60 31.99 C 98.53 32.00 97.46 32.00 96.40 32.00 C 96.40 26.66 96.40 21.33 96.40 16.00 Z" />
<path fill="#16181e" opacity="1.00" d=" M 110.61 19.00 C 110.60 18.00 110.60 17.00 110.60 16.00 C 114.87 16.00 119.13 16.00 123.40 16.01 C 123.40 16.75 123.40 18.25 123.40 18.99 C 121.80 19.00 120.20 19.00 118.60 19.01 C 118.60 23.34 118.60 27.67 118.60 31.99 C 117.53 32.00 116.46 32.00 115.40 32.00 C 115.40 27.66 115.40 23.34 115.40 19.01 C 113.80 19.00 112.20 19.00 110.61 19.00 Z" />
<path fill="#16181e" opacity="1.00" d=" M 128.33 16.06 C 129.08 16.03 130.59 15.99 131.34 15.96 C 133.38 21.29 135.22 26.69 137.28 32.00 C 136.40 32.00 134.65 32.00 133.77 32.00 C 133.44 31.00 133.10 30.00 132.77 29.00 C 130.86 29.00 128.95 29.00 127.05 29.00 C 126.71 30.00 126.36 31.00 126.02 31.99 C 125.16 32.00 123.43 32.00 122.57 32.00 C 124.50 26.69 126.47 21.40 128.33 16.06 M 129.89 19.99 C 129.25 22.00 128.61 24.00 127.97 26.01 C 129.26 26.00 130.56 25.98 131.86 25.96 C 131.20 23.97 130.54 21.99 129.89 19.99 Z" />
<path fill="#16181e" opacity="1.00" d=" M 138.60 16.00 C 139.42 16.00 141.06 16.00 141.87 16.00 C 143.96 19.51 146.06 23.02 148.13 26.54 C 148.14 23.03 148.13 19.52 148.13 16.00 C 148.95 16.00 150.58 16.00 151.40 16.00 C 151.40 21.33 151.40 26.66 151.40 31.99 C 150.59 32.00 148.98 32.01 148.18 32.01 C 146.06 28.51 143.97 24.98 141.88 21.46 C 141.85 24.98 141.87 28.49 141.87 32.00 C 141.05 32.00 139.42 32.00 138.60 32.00 C 138.60 26.67 138.60 21.34 138.60 16.00 Z" />
<path fill="#16181e" opacity="1.00" d=" M 152.87 16.01 C 157.11 15.99 161.36 15.99 165.61 16.02 C 165.61 16.76 165.61 18.24 165.61 18.98 C 164.03 19.00 162.45 19.00 160.87 19.01 C 160.87 23.34 160.86 27.67 160.87 32.00 C 160.05 32.00 158.42 32.00 157.60 32.00 C 157.60 27.67 157.60 23.34 157.61 19.02 C 156.03 19.00 154.44 19.00 152.87 18.99 C 152.87 18.24 152.87 16.75 152.87 16.01 Z" />
</g>
</svg>
