<?xml version="1.0" encoding="UTF-8" ?>
<!DOCTYPE svg PUBLIC "-//W3C//DTD SVG 1.1//EN" "http://www.w3.org/Graphics/SVG/1.1/DTD/svg11.dtd">
<svg width="188pt" height="47pt" viewBox="0 0 188 47" version="1.1" xmlns="http://www.w3.org/2000/svg">
<g id="#f6bb1aff">
<path fill="#f6bb1a" opacity="1.00" d=" M 20.00 0.80 C 76.00 0.80 132.00 0.80 188.00 0.80 L 188.00 31.80 C 186.33 31.80 184.67 31.80 183.00 31.80 C 182.99 23.14 183.00 14.47 183.00 5.80 C 128.67 5.80 74.34 5.79 20.00 5.80 C 20.00 4.13 20.00 2.47 20.00 0.80 Z" />
</g>
<g id="#f6ba18ff">
<path fill="#f6ba18" opacity="1.00" d=" M 0.00 15.80 C 1.67 15.80 3.33 15.80 5.00 15.80 C 5.00 24.47 5.00 33.14 5.00 41.80 C 61.02 41.80 117.03 41.80 173.05 41.80 C 172.98 43.53 172.93 45.27 172.90 47.00 L 0.00 47.00 L 0.00 15.80 Z" />
</g>
<g id="#ffffffff">
<path fill="#ffffff" opacity="1.00" d=" M 27.51 16.12 C 28.56 16.09 29.61 16.05 30.65 15.99 C 32.63 21.33 34.44 26.73 36.57 32.01 C 35.69 32.00 33.92 32.00 33.04 32.00 C 32.70 31.00 32.37 30.00 32.03 29.00 C 30.11 29.00 28.20 29.00 26.28 29.01 C 25.96 30.01 25.63 31.01 25.30 32.01 C 24.43 32.00 22.70 31.99 21.83 31.98 C 23.73 26.70 25.75 21.46 27.51 16.12 M 27.22 25.97 C 28.51 25.99 29.81 26.00 31.11 26.01 C 30.45 24.00 29.79 22.00 29.12 19.99 C 28.49 21.99 27.86 23.98 27.22 25.97 Z" />
<path fill="#ffffff" opacity="1.00" d=" M 42.31 15.97 C 43.43 15.99 44.56 15.99 45.69 15.98 C 48.14 16.92 49.83 18.88 50.51 21.41 C 49.74 21.43 48.20 21.47 47.43 21.49 C 46.53 19.23 43.71 18.02 41.72 19.71 C 40.32 21.81 40.56 24.61 41.00 26.97 C 41.85 30.08 46.57 29.51 47.30 26.55 C 48.08 26.56 49.64 26.57 50.42 26.57 C 50.04 29.32 48.01 31.00 45.66 32.09 C 43.02 32.24 39.91 31.69 38.56 29.12 C 36.24 24.73 36.99 17.79 42.31 15.97 Z" />
<path fill="#ffffff" opacity="1.00" d=" M 56.14 16.24 C 59.96 14.91 64.00 17.54 64.79 21.40 C 63.99 21.42 62.38 21.47 61.58 21.49 C 60.74 18.60 57.34 18.30 55.34 20.16 C 55.19 23.06 53.86 27.19 56.99 28.98 C 59.04 29.50 60.90 28.52 61.52 26.46 C 62.32 26.51 63.92 26.60 64.73 26.65 C 63.98 31.69 57.26 33.90 53.69 30.31 C 50.32 26.30 50.68 18.27 56.14 16.24 Z" />
<path fill="#ffffff" opacity="1.00" d=" M 71.36 16.08 C 76.00 14.88 80.11 19.48 79.51 23.96 C 80.07 28.22 76.52 32.73 72.02 32.02 C 64.31 31.13 63.97 17.76 71.36 16.08 M 71.28 19.35 C 68.50 21.42 68.45 27.59 72.00 28.97 C 78.32 30.24 77.61 16.57 71.28 19.35 Z" />
<path fill="#ffffff" opacity="1.00" d=" M 81.74 16.00 C 82.55 16.00 84.19 16.00 85.00 16.00 C 85.06 19.71 84.86 23.43 85.09 27.13 C 85.28 29.23 87.76 28.79 89.20 29.24 C 91.80 25.35 90.03 20.37 90.53 16.00 C 91.33 16.00 92.94 16.00 93.74 16.01 C 93.55 20.28 94.15 24.63 93.37 28.85 C 91.24 33.42 83.08 33.11 81.90 28.00 C 81.52 24.01 81.82 20.00 81.74 16.00 Z" />
<path fill="#ffffff" opacity="1.00" d=" M 96.40 15.98 C 97.49 16.00 98.58 16.03 99.68 16.06 C 101.69 19.55 103.79 23.00 105.85 26.47 C 105.87 22.98 105.87 19.49 105.87 16.00 C 106.68 16.00 108.32 16.00 109.13 16.00 C 109.13 21.33 109.13 26.67 109.13 32.00 C 108.32 32.00 106.70 32.00 105.90 32.00 C 103.81 28.50 101.75 24.99 99.63 21.51 C 99.58 25.01 99.60 28.51 99.60 32.00 C 98.80 32.00 97.20 31.99 96.39 31.99 C 96.40 26.65 96.40 21.32 96.40 15.98 Z" />
<path fill="#ffffff" opacity="1.00" d=" M 110.51 16.06 C 114.81 15.96 119.10 16.01 123.40 16.00 C 123.40 16.75 123.40 18.25 123.40 19.00 C 121.80 19.00 120.20 19.00 118.60 19.00 C 118.60 23.33 118.60 27.66 118.61 31.99 C 117.53 32.00 116.46 32.00 115.39 31.99 C 115.40 27.66 115.40 23.32 115.40 18.99 C 113.82 19.00 112.24 19.01 110.66 19.02 C 110.61 18.03 110.56 17.05 110.51 16.06 Z" />
<path fill="#ffffff" opacity="1.00" d=" M 128.30 16.03 C 129.49 16.23 131.51 15.32 131.79 17.11 C 133.68 22.05 135.33 27.08 137.29 32.00 C 136.41 32.00 134.64 32.00 133.76 32.00 C 133.43 31.00 133.10 30.00 132.78 29.00 C 130.86 29.00 128.95 29.00 127.04 29.00 C 126.70 30.00 126.37 31.00 126.03 32.00 C 125.17 32.00 123.43 32.00 122.57 32.00 C 124.49 26.68 126.52 21.40 128.30 16.03 M 129.90 19.97 C 129.25 21.98 128.61 23.99 127.97 26.01 C 128.94 26.00 130.88 25.99 131.85 25.98 C 131.19 23.98 130.53 21.98 129.90 19.97 Z" />
<path fill="#ffffff" opacity="1.00" d=" M 138.60 16.00 C 139.42 16.00 141.07 16.00 141.89 16.00 C 143.89 19.42 145.93 22.82 147.96 26.22 C 148.21 22.82 148.15 19.41 148.13 16.01 C 148.94 16.00 150.58 16.00 151.40 16.00 C 151.40 21.33 151.40 26.66 151.40 31.99 C 150.59 32.00 148.97 32.00 148.16 32.01 C 146.08 28.56 144.08 25.07 141.93 21.67 C 141.83 25.11 141.87 28.55 141.87 32.00 C 141.05 32.00 139.42 32.00 138.60 32.00 C 138.60 26.67 138.60 21.33 138.60 16.00 Z" />
<path fill="#ffffff" opacity="1.00" d=" M 152.87 16.00 C 157.11 16.00 161.36 15.99 165.61 16.01 C 165.61 16.75 165.61 18.24 165.61 18.99 C 164.02 18.99 162.44 19.00 160.87 19.01 C 160.87 23.34 160.86 27.67 160.87 32.00 C 160.05 32.00 158.42 32.00 157.60 32.00 C 157.60 27.67 157.60 23.34 157.60 19.01 C 156.02 19.00 154.44 19.00 152.87 19.00 C 152.87 18.25 152.87 16.75 152.87 16.00 Z" />
</g>
</svg>
