<?xml version="1.0" encoding="UTF-8" ?>
<!DOCTYPE svg PUBLIC "-//W3C//DTD SVG 1.1//EN" "http://www.w3.org/Graphics/SVG/1.1/DTD/svg11.dtd">
<svg width="188pt" height="47pt" viewBox="0 0 188 47" version="1.1" xmlns="http://www.w3.org/2000/svg">
<g id="#ffffffff">
<path fill="#ffffff" opacity="1.00" d=" M 20.00 0.80 C 76.00 0.80 132.00 0.80 188.00 0.80 L 188.00 31.80 C 186.33 31.80 184.67 31.80 183.00 31.80 C 183.00 23.14 183.00 14.47 183.00 5.80 C 128.67 5.80 74.33 5.80 20.00 5.80 C 20.00 4.13 20.00 2.47 20.00 0.80 Z" />
<path fill="#ffffff" opacity="1.00" d=" M 0.00 15.80 C 1.67 15.80 3.33 15.80 5.00 15.80 C 5.00 24.47 5.00 33.13 5.00 41.80 C 61.01 41.80 117.03 41.80 173.04 41.80 C 173.00 43.53 172.95 45.27 172.89 47.00 L 0.00 47.00 L 0.00 15.80 Z" />
<path fill="#ffffff" opacity="1.00" d=" M 27.23 17.09 C 27.50 15.37 29.51 16.21 30.67 16.00 C 32.62 21.34 34.44 26.73 36.57 32.00 C 35.69 32.00 33.92 32.00 33.04 32.00 C 32.70 31.00 32.36 30.00 32.03 28.99 C 30.11 29.00 28.19 29.00 26.27 29.02 C 25.94 30.02 25.62 31.02 25.29 32.02 C 24.42 32.01 22.69 31.99 21.83 31.97 C 23.67 27.03 25.42 22.05 27.23 17.09 M 29.13 20.01 C 28.50 21.99 27.85 23.96 27.20 25.93 C 28.50 25.96 29.81 26.00 31.11 26.03 C 30.46 24.02 29.79 22.01 29.13 20.01 Z" />
<path fill="#ffffff" opacity="1.00" d=" M 42.32 15.97 C 43.44 15.98 44.56 15.98 45.68 15.98 C 48.14 16.92 49.84 18.88 50.51 21.42 C 49.73 21.43 48.19 21.47 47.41 21.48 C 46.53 19.21 43.70 18.03 41.71 19.72 C 40.34 21.82 40.56 24.60 40.99 26.96 C 41.81 30.05 46.59 29.55 47.28 26.56 C 48.06 26.56 49.64 26.57 50.42 26.57 C 50.04 29.31 48.01 31.00 45.65 32.09 C 43.01 32.24 39.87 31.68 38.54 29.07 C 36.25 24.69 37.00 17.76 42.32 15.97 Z" />
<path fill="#ffffff" opacity="1.00" d=" M 56.13 16.24 C 59.95 14.91 64.01 17.54 64.79 21.41 C 63.99 21.43 62.37 21.46 61.56 21.48 C 60.85 19.48 59.04 18.50 56.99 19.04 C 54.20 20.54 54.95 24.36 55.23 26.96 C 56.10 30.06 60.95 29.61 61.53 26.45 C 62.33 26.50 63.93 26.61 64.73 26.66 C 63.96 31.71 57.21 33.91 53.66 30.27 C 50.33 26.25 50.69 18.28 56.13 16.24 Z" />
<path fill="#ffffff" opacity="1.00" d=" M 71.39 16.07 C 78.32 14.53 81.49 23.50 78.55 28.63 C 76.49 33.09 69.32 33.17 67.15 28.76 C 65.04 24.44 65.88 17.27 71.39 16.07 M 71.31 19.34 C 68.80 20.86 69.27 24.45 69.79 26.89 C 70.62 29.71 75.09 29.79 75.85 26.88 C 77.30 23.77 75.80 17.31 71.31 19.34 Z" />
<path fill="#ffffff" opacity="1.00" d=" M 81.74 16.00 C 82.55 16.00 84.19 16.00 85.00 16.00 C 85.06 19.72 84.86 23.44 85.09 27.15 C 85.30 29.23 87.78 28.81 89.22 29.23 C 91.79 25.33 90.03 20.37 90.53 16.00 C 91.33 16.00 92.94 16.00 93.74 16.01 C 93.62 20.03 93.99 24.09 93.53 28.10 C 92.27 33.45 82.97 33.38 81.88 27.91 C 81.53 23.95 81.82 19.97 81.74 16.00 Z" />
<path fill="#ffffff" opacity="1.00" d=" M 96.39 16.00 C 97.49 16.02 98.60 16.04 99.70 16.07 C 101.69 19.56 103.78 23.00 105.86 26.44 C 105.88 22.96 105.86 19.48 105.87 16.00 C 106.68 16.00 108.32 16.00 109.13 16.00 C 109.13 21.33 109.13 26.67 109.13 32.00 C 108.32 32.00 106.70 32.00 105.89 32.00 C 103.82 28.53 101.81 25.02 99.64 21.61 C 99.57 25.08 99.61 28.55 99.60 32.02 C 98.79 32.01 97.18 31.97 96.38 31.96 C 96.42 26.64 96.40 21.32 96.39 16.00 Z" />
<path fill="#ffffff" opacity="1.00" d=" M 110.63 18.82 C 110.59 17.88 110.56 16.94 110.56 15.99 C 114.84 16.01 119.12 16.00 123.40 16.00 C 123.40 16.75 123.40 18.25 123.40 19.00 C 121.80 19.00 120.20 19.00 118.60 19.00 C 118.60 23.32 118.59 27.65 118.62 31.97 C 117.54 31.98 116.47 32.00 115.40 32.01 C 115.40 27.69 115.39 23.37 115.41 19.04 C 113.81 19.00 112.20 19.09 110.63 18.82 Z" />
<path fill="#ffffff" opacity="1.00" d=" M 128.25 16.14 C 129.01 16.08 130.53 15.96 131.30 15.90 C 133.41 21.22 135.17 26.68 137.29 32.00 C 136.41 32.00 134.65 32.00 133.77 32.00 C 133.44 31.00 133.10 30.00 132.77 29.00 C 130.86 29.00 128.95 29.00 127.04 29.00 C 126.70 30.00 126.37 31.00 126.03 32.00 C 125.17 32.00 123.43 32.00 122.56 32.00 C 124.47 26.72 126.50 21.48 128.25 16.14 M 129.88 20.04 C 129.24 22.03 128.59 24.02 127.97 26.02 C 129.27 26.00 130.57 25.97 131.87 25.94 C 131.21 23.98 130.54 22.01 129.88 20.04 Z" />
<path fill="#ffffff" opacity="1.00" d=" M 138.60 16.00 C 139.42 16.00 141.07 16.00 141.89 16.00 C 143.88 19.41 145.93 22.79 147.93 26.20 C 148.25 22.81 148.13 19.40 148.12 16.00 C 148.94 16.00 150.58 16.00 151.40 16.00 C 151.40 21.33 151.40 26.66 151.40 32.00 C 150.59 32.00 148.98 32.00 148.17 32.01 C 146.07 28.56 144.08 25.05 141.93 21.64 C 141.83 25.09 141.86 28.54 141.87 32.00 C 141.05 32.00 139.42 32.00 138.60 32.00 C 138.60 26.67 138.60 21.33 138.60 16.00 Z" />
<path fill="#ffffff" opacity="1.00" d=" M 152.87 16.00 C 157.12 16.00 161.37 15.98 165.62 16.02 C 165.62 16.76 165.60 18.25 165.60 18.99 C 164.02 19.00 162.44 19.00 160.87 19.00 C 160.87 23.34 160.86 27.67 160.87 32.00 C 160.05 32.00 158.42 32.00 157.60 32.00 C 157.60 27.67 157.59 23.34 157.61 19.01 C 156.03 19.00 154.44 19.00 152.87 18.99 C 152.87 18.24 152.87 16.75 152.87 16.00 Z" />
</g>
</svg>
