<?xml version="1.0" encoding="UTF-8" ?>
<!DOCTYPE svg PUBLIC "-//W3C//DTD SVG 1.1//EN" "http://www.w3.org/Graphics/SVG/1.1/DTD/svg11.dtd">
<svg width="48pt" height="39pt" viewBox="0 0 48 39" version="1.1" xmlns="http://www.w3.org/2000/svg">
<g id="#16181eff">
<path fill="#16181e" opacity="1.00" d=" M 1.92 0.00 L 46.27 0.00 C 46.11 1.19 46.69 1.83 48.00 1.91 L 48.00 37.28 C 46.81 37.12 46.17 37.69 46.08 39.00 L 1.73 39.00 C 1.89 37.81 1.31 37.17 0.00 37.09 L 0.00 1.72 C 1.19 1.89 1.83 1.31 1.92 0.00 M 2.54 2.90 C 9.53 10.33 16.89 17.40 24.03 24.69 C 31.15 17.40 38.49 10.33 45.46 2.89 C 31.16 2.75 16.84 2.73 2.54 2.90 M 2.90 7.50 C 2.87 17.06 2.88 26.62 2.89 36.17 C 16.96 36.22 31.04 36.21 45.11 36.18 C 45.12 26.63 45.13 17.07 45.10 7.51 C 38.49 14.08 32.02 20.80 25.39 27.34 C 24.50 28.54 22.94 27.90 22.20 26.92 C 15.76 20.45 9.35 13.96 2.90 7.50 Z" />
</g>
</svg>
