<?xml version="1.0" encoding="UTF-8" ?>
<!DOCTYPE svg PUBLIC "-//W3C//DTD SVG 1.1//EN" "http://www.w3.org/Graphics/SVG/1.1/DTD/svg11.dtd">
<svg width="18pt" height="12pt" viewBox="0 0 18 12" version="1.1" xmlns="http://www.w3.org/2000/svg">
<g id="#ffffffff">
<path fill="#ffffff" opacity="1.00" d=" M 0.00 0.00 L 18.00 0.00 L 18.00 12.00 L 0.00 12.00 L 0.00 0.00 M 1.79 1.16 C 4.36 2.27 6.69 3.84 9.00 5.42 C 11.23 3.93 13.51 2.52 15.76 1.05 C 11.10 0.84 6.44 0.81 1.79 1.16 M 1.07 1.46 C 1.05 4.65 1.06 7.84 1.06 11.02 C 6.35 11.07 11.65 11.07 16.94 11.03 C 16.94 7.83 16.94 4.64 16.93 1.45 C 14.30 3.17 11.65 4.87 9.01 6.57 C 6.35 4.88 3.71 3.17 1.07 1.46 Z" />
</g>
</svg>
