<?xml version="1.0" encoding="UTF-8" ?>
<!DOCTYPE svg PUBLIC "-//W3C//DTD SVG 1.1//EN" "http://www.w3.org/Graphics/SVG/1.1/DTD/svg11.dtd">
<svg width="50pt" height="42pt" viewBox="0 0 50 42" version="1.1" xmlns="http://www.w3.org/2000/svg">
<g id="#16181efe">
<path fill="#16181e" opacity="1.00" d=" M 21.78 0.00 L 27.09 0.00 C 35.25 0.98 46.25 1.73 50.00 10.47 L 50.00 15.43 C 49.32 20.59 42.97 20.59 39.35 18.66 C 36.72 17.49 37.13 14.22 36.75 11.87 C 29.41 8.79 20.69 8.66 13.37 11.87 C 12.93 14.21 13.29 17.47 10.68 18.64 C 7.08 20.58 0.78 20.55 0.00 15.47 L 0.00 11.06 C 0.58 8.66 1.85 6.41 3.92 4.99 C 9.06 1.26 15.63 0.54 21.78 0.00 M 14.47 3.74 C 10.48 4.72 5.90 5.80 3.45 9.40 C 2.53 11.56 2.27 14.49 3.43 16.56 C 6.10 17.78 11.17 16.91 10.46 12.99 C 10.42 9.23 14.63 8.01 17.62 7.47 C 24.25 6.42 31.56 6.24 37.68 9.36 C 41.10 10.76 38.05 16.43 42.12 16.74 C 43.59 16.93 45.35 17.47 46.68 16.55 C 48.18 13.24 47.27 8.89 43.89 7.13 C 35.06 2.07 24.23 2.12 14.47 3.74 Z" />
<path fill="#16181e" opacity="1.00" d=" M 17.67 13.59 C 22.56 10.12 29.79 10.82 34.10 14.92 C 39.52 20.05 41.96 27.72 41.92 35.05 C 41.97 37.64 41.15 40.27 39.15 42.00 L 10.91 42.00 C 7.58 39.11 7.93 34.30 8.45 30.35 C 9.49 23.98 12.13 17.33 17.67 13.59 M 16.79 17.90 C 11.93 23.63 9.66 31.89 11.64 39.22 C 20.56 39.18 29.48 39.20 38.41 39.20 C 40.34 31.44 38.00 22.44 32.13 16.90 C 27.91 12.82 20.49 13.42 16.79 17.90 Z" />
<path fill="#16181e" opacity="1.00" d=" M 21.32 21.24 C 26.58 18.17 33.80 23.02 33.16 29.01 C 33.17 34.82 26.07 38.93 21.08 35.86 C 15.48 32.99 15.60 23.90 21.32 21.24 M 23.29 23.41 C 20.11 24.35 18.50 28.69 20.44 31.44 C 22.34 35.26 28.65 34.77 30.00 30.73 C 32.02 26.70 27.52 21.69 23.29 23.41 Z" />
</g>
</svg>
