<?xml version="1.0" encoding="UTF-8" ?>
<!DOCTYPE svg PUBLIC "-//W3C//DTD SVG 1.1//EN" "http://www.w3.org/Graphics/SVG/1.1/DTD/svg11.dtd">
<svg width="36pt" height="36pt" viewBox="0 0 36 36" version="1.1" xmlns="http://www.w3.org/2000/svg">
<g id="#2e7fe6ff">
<path fill="#2e7fe6" opacity="1.00" d=" M 17.65 0.00 L 18.38 0.00 C 27.23 0.21 35.04 7.38 36.00 16.19 L 36.00 19.54 C 35.19 28.47 27.31 35.84 18.34 36.00 L 17.56 36.00 C 8.56 35.87 0.67 28.34 0.00 19.39 L 0.00 16.51 C 0.74 7.57 8.66 0.10 17.65 0.00 M 3.82 10.77 C 5.39 10.78 6.96 10.79 8.53 10.80 C 9.32 8.17 10.45 5.65 11.83 3.27 C 8.54 5.04 5.75 7.55 3.82 10.77 M 10.75 10.79 C 12.79 10.80 14.84 10.80 16.88 10.80 C 16.89 7.94 16.89 5.08 16.82 2.22 C 13.52 3.98 11.95 7.44 10.75 10.79 M 19.18 2.21 C 19.11 5.08 19.10 7.94 19.12 10.81 C 21.16 10.80 23.21 10.80 25.26 10.79 C 24.07 7.43 22.46 3.99 19.18 2.21 M 24.18 3.27 C 25.54 5.66 26.67 8.17 27.47 10.81 C 29.04 10.79 30.61 10.78 32.18 10.76 C 30.25 7.56 27.46 5.04 24.18 3.27 M 2.91 12.98 C 2.09 16.29 2.06 19.70 2.87 23.01 C 4.61 23.00 6.35 22.99 8.09 23.00 C 7.76 19.68 7.76 16.33 8.09 13.00 C 6.36 13.01 4.63 13.00 2.91 12.98 M 10.30 13.01 C 9.95 16.33 9.95 19.67 10.27 23.00 C 12.48 22.99 14.68 22.99 16.89 23.00 C 16.88 19.67 16.88 16.33 16.89 12.99 C 14.69 13.01 12.50 13.01 10.30 13.01 M 19.11 12.99 C 19.12 16.33 19.12 19.67 19.11 23.00 C 21.32 22.99 23.52 22.99 25.73 23.00 C 26.06 19.67 26.05 16.33 25.69 13.01 C 23.50 13.02 21.31 13.01 19.11 12.99 M 27.91 13.00 C 28.25 16.33 28.24 19.68 27.90 23.00 C 29.64 22.99 31.39 23.00 33.13 23.01 C 33.95 19.71 33.90 16.29 33.09 12.98 C 31.37 13.00 29.64 13.01 27.91 13.00 M 3.75 25.02 C 5.60 28.38 8.45 30.98 11.83 32.74 C 10.46 30.28 9.28 27.71 8.49 25.01 C 6.91 25.01 5.33 25.02 3.75 25.02 M 10.69 25.02 C 11.78 28.51 13.47 31.99 16.82 33.82 C 16.88 30.88 16.91 27.93 16.89 24.99 C 14.82 25.01 12.75 25.01 10.69 25.02 M 19.11 24.99 C 19.10 27.93 19.11 30.86 19.17 33.79 C 22.51 31.99 24.21 28.50 25.26 25.02 C 23.21 25.01 21.16 25.01 19.11 24.99 M 27.51 25.01 C 26.72 27.71 25.54 30.28 24.17 32.74 C 27.55 30.98 30.40 28.38 32.25 25.02 C 30.67 25.02 29.09 25.01 27.51 25.01 Z" />
</g>
</svg>
