<?xml version="1.0" encoding="UTF-8" ?>
<!DOCTYPE svg PUBLIC "-//W3C//DTD SVG 1.1//EN" "http://www.w3.org/Graphics/SVG/1.1/DTD/svg11.dtd">
<svg width="37pt" height="37pt" viewBox="0 0 37 37" version="1.1" xmlns="http://www.w3.org/2000/svg">
<g id="#2e7fe6ff">
<path fill="#2e7fe6" opacity="1.00" d=" M 9.08 0.00 L 35.38 0.00 C 35.09 1.34 35.64 1.91 37.00 1.70 L 37.00 20.64 C 35.73 22.62 33.22 22.26 31.19 22.59 C 31.15 21.96 31.07 20.71 31.03 20.08 C 32.22 20.03 33.41 19.98 34.60 19.93 C 34.58 14.09 34.60 8.25 34.58 2.41 C 26.42 2.39 18.27 2.40 10.11 2.40 C 10.06 4.16 10.00 5.92 9.95 7.69 C 9.34 7.65 8.11 7.57 7.50 7.53 C 7.68 4.97 7.05 2.01 9.08 0.00 Z" />
<path fill="#2e7fe6" opacity="1.00" d=" M 0.00 11.73 C 0.84 11.04 1.68 10.11 2.90 10.25 C 10.60 10.12 18.32 10.21 26.02 10.21 C 27.74 9.92 29.53 11.14 29.28 13.02 C 29.37 18.99 29.57 24.99 29.15 30.95 C 27.61 33.47 24.13 32.29 21.70 32.69 C 21.70 34.13 21.71 35.56 21.71 37.00 L 21.70 37.00 C 18.21 35.44 15.11 32.34 11.05 32.59 C 7.36 32.40 3.36 33.33 0.00 31.34 L 0.00 11.73 M 2.43 12.42 C 2.42 18.36 2.34 24.29 2.48 30.22 C 8.18 30.45 14.52 28.89 19.30 32.94 C 19.30 32.26 19.30 30.89 19.29 30.21 C 21.84 30.20 24.39 30.20 26.94 30.17 C 26.93 24.25 26.98 18.33 26.90 12.41 C 18.75 12.40 10.59 12.38 2.43 12.42 Z" />
<path fill="#2e7fe6" opacity="1.00" d=" M 5.73 17.84 C 11.51 17.46 17.32 17.48 23.09 17.76 C 23.02 18.24 22.87 19.19 22.79 19.66 C 17.42 19.90 12.00 19.92 6.62 19.66 C 6.40 19.20 5.96 18.30 5.73 17.84 Z" />
<path fill="#2e7fe6" opacity="1.00" d=" M 12.29 24.76 C 12.05 23.45 12.58 22.82 13.91 22.85 C 17.06 22.67 20.22 22.81 23.37 22.93 C 23.27 23.41 23.07 24.38 22.98 24.87 C 19.47 25.37 15.77 25.54 12.29 24.76 Z" />
</g>
</svg>
