<?xml version="1.0" encoding="UTF-8" ?>
<!DOCTYPE svg PUBLIC "-//W3C//DTD SVG 1.1//EN" "http://www.w3.org/Graphics/SVG/1.1/DTD/svg11.dtd">
<svg width="34pt" height="29pt" viewBox="0 0 34 29" version="1.1" xmlns="http://www.w3.org/2000/svg">
<g id="#2e7fe6ff">
<path fill="#2e7fe6" opacity="1.00" d=" M 10.79 0.00 L 23.17 0.00 C 23.27 1.22 23.36 2.44 23.43 3.65 C 26.96 3.61 30.69 3.02 34.00 4.61 L 34.00 28.90 C 33.95 28.93 33.84 28.98 33.79 29.00 L 0.19 29.00 C 0.14 28.96 0.05 28.87 0.00 28.83 L 0.00 4.66 C 3.27 2.93 7.05 3.65 10.58 3.66 C 10.65 2.44 10.72 1.22 10.79 0.00 M 12.15 3.44 C 15.39 3.69 18.60 3.64 21.84 3.46 C 21.23 1.20 18.66 2.23 17.02 1.93 C 15.37 2.22 12.83 1.23 12.15 3.44 M 2.06 5.59 C 2.06 12.73 2.06 19.87 2.06 27.01 C 3.78 26.99 5.51 26.99 7.24 27.01 C 7.24 19.87 7.24 12.73 7.24 5.59 C 5.51 5.61 3.78 5.61 2.06 5.59 M 9.28 26.99 C 14.43 27.00 19.57 27.01 24.72 26.99 C 24.68 19.85 24.74 12.71 24.68 5.57 C 19.56 5.60 14.44 5.67 9.32 5.52 C 9.27 12.67 9.30 19.83 9.28 26.99 M 26.76 5.59 C 26.76 12.73 26.76 19.87 26.76 27.01 C 28.49 26.99 30.22 26.99 31.95 27.01 C 31.94 19.87 31.94 12.73 31.94 5.59 C 30.22 5.61 28.49 5.61 26.76 5.59 Z" />
</g>
</svg>
