<?xml version="1.0" encoding="UTF-8" ?>
<!DOCTYPE svg PUBLIC "-//W3C//DTD SVG 1.1//EN" "http://www.w3.org/Graphics/SVG/1.1/DTD/svg11.dtd">
<svg width="35pt" height="40pt" viewBox="0 0 35 40" version="1.1" xmlns="http://www.w3.org/2000/svg">
<g id="#2d7fe6ff">
<path fill="#2d7fe6" opacity="1.00" d=" M 5.60 0.00 L 16.66 0.00 C 21.33 4.57 25.78 9.37 30.36 14.04 C 30.36 16.53 30.34 19.03 30.33 21.52 C 31.93 21.81 33.58 22.06 35.00 22.90 L 35.00 39.73 C 34.93 39.80 34.79 39.93 34.72 40.00 L 0.34 40.00 C 0.26 39.97 0.09 39.90 0.00 39.87 L 0.00 23.30 C 1.06 21.73 3.02 21.88 4.67 21.55 C 5.12 14.39 3.56 6.95 5.60 0.00 M 6.78 2.20 C 6.75 8.73 6.76 15.27 6.77 21.80 C 13.94 21.80 21.12 21.80 28.29 21.80 C 28.29 19.93 28.29 18.06 28.29 16.19 C 24.21 16.08 20.09 16.51 16.03 15.96 C 15.76 15.73 15.21 15.26 14.93 15.03 C 14.42 10.78 14.82 6.48 14.71 2.20 C 12.06 2.20 9.42 2.20 6.78 2.20 M 16.77 3.13 C 16.76 6.75 16.76 10.38 16.78 14.00 C 20.30 14.00 23.81 14.00 27.32 13.99 C 23.81 10.36 20.30 6.74 16.77 3.13 M 2.11 24.00 C 2.12 28.60 2.11 33.20 2.12 37.80 C 12.37 37.80 22.63 37.80 32.88 37.80 C 32.89 33.20 32.88 28.60 32.88 24.00 C 22.63 24.00 12.37 24.00 2.11 24.00 Z" />
<path fill="#2d7fe6" opacity="1.00" d=" M 16.90 28.94 C 15.62 29.28 14.18 27.35 16.03 26.92 C 20.84 26.61 25.68 26.84 30.50 26.89 C 30.32 27.36 29.97 28.29 29.79 28.76 C 25.52 29.26 21.19 28.99 16.90 28.94 Z" />
<path fill="#2d7fe6" opacity="1.00" d=" M 20.83 31.82 C 23.98 31.44 27.20 31.44 30.35 31.86 C 30.22 32.30 29.97 33.18 29.84 33.62 C 26.88 33.61 23.14 34.68 20.66 32.97 L 20.83 31.82 Z" />
</g>
</svg>
