<?xml version="1.0" encoding="UTF-8" ?>
<!DOCTYPE svg PUBLIC "-//W3C//DTD SVG 1.1//EN" "http://www.w3.org/Graphics/SVG/1.1/DTD/svg11.dtd">
<svg width="17pt" height="14pt" viewBox="0 0 17 14" version="1.1" xmlns="http://www.w3.org/2000/svg">
<g id="#888888ff">
<path fill="#888888" opacity="1.00" d=" M 5.32 0.00 L 5.72 0.00 C 5.78 0.91 6.29 1.79 7.23 2.63 C 5.48 3.85 3.72 5.22 3.33 7.48 C 4.60 8.21 6.68 8.34 6.99 10.11 C 7.55 11.84 6.29 12.95 5.14 14.00 L 2.89 14.00 C -2.23 11.01 0.45 2.46 5.46 0.62 C 5.43 0.46 5.36 0.15 5.32 0.00 Z" />
<path fill="#888888" opacity="1.00" d=" M 14.36 0.00 L 14.80 0.00 C 14.77 0.91 15.24 1.79 16.23 2.63 C 14.63 3.85 12.13 5.42 12.64 7.71 C 16.23 7.79 17.29 12.37 14.13 14.00 L 11.89 14.00 C 6.74 11.04 9.47 2.42 14.47 0.62 C 14.44 0.47 14.38 0.16 14.36 0.00 Z" />
</g>
</svg>
