<?xml version="1.0" encoding="UTF-8" ?>
<!DOCTYPE svg PUBLIC "-//W3C//DTD SVG 1.1//EN" "http://www.w3.org/Graphics/SVG/1.1/DTD/svg11.dtd">
<svg width="16pt" height="14pt" viewBox="0 0 16 14" version="1.1" xmlns="http://www.w3.org/2000/svg">
<g id="#888888ff">
<path fill="#888888" opacity="1.00" d=" M 10.34 0.00 L 10.72 0.00 C 10.68 0.16 10.59 0.47 10.54 0.62 C 15.64 2.38 18.05 10.48 13.53 14.00 L 11.02 14.00 C 10.32 13.10 8.81 12.36 9.21 10.99 C 8.94 8.77 11.32 8.08 12.93 7.39 C 12.27 5.34 10.78 3.85 9.01 2.72 C 9.34 2.04 10.01 0.68 10.34 0.00 Z" />
<path fill="#888888" opacity="1.00" d=" M 0.08 2.96 C 0.39 2.30 1.00 0.96 1.31 0.30 C 6.39 2.28 9.21 10.28 4.53 14.00 L 2.00 14.00 C 1.55 13.50 0.65 12.51 0.19 12.02 C -0.43 9.43 1.77 8.01 3.92 7.40 C 3.23 5.48 2.00 3.78 0.08 2.96 Z" />
</g>
</svg>
