<?xml version="1.0" encoding="UTF-8" ?>
<!DOCTYPE svg PUBLIC "-//W3C//DTD SVG 1.1//EN" "http://www.w3.org/Graphics/SVG/1.1/DTD/svg11.dtd">
<svg width="17pt" height="17pt" viewBox="0 0 17 17" version="1.1" xmlns="http://www.w3.org/2000/svg">
<g id="#ffffffd0">
<path fill="#ffffff" opacity="0.82" d=" M 5.17 0.00 L 9.93 0.00 C 13.23 0.80 15.77 3.24 16.99 6.38 L 17.00 5.10 L 17.00 11.54 L 16.17 12.20 L 15.55 12.64 C 13.87 11.97 15.91 9.99 15.90 8.76 C 16.29 3.71 10.53 -0.43 5.87 1.60 C 1.30 3.15 -0.55 9.55 2.78 13.15 C 4.49 15.47 7.53 15.73 9.92 17.00 L 6.99 17.00 C 3.58 16.17 1.03 13.58 0.01 10.25 L 0.00 11.82 L 0.00 6.99 C 0.87 3.69 3.29 1.19 6.46 0.01 L 5.17 0.00 Z" />
<path fill="#ffffff" opacity="0.82" d=" M 9.17 4.70 C 9.23 4.09 9.36 2.89 9.43 2.29 C 12.41 3.14 14.31 5.57 15.08 8.47 C 14.17 8.40 13.27 8.39 12.36 8.47 C 11.86 6.82 10.69 5.50 9.17 4.70 Z" />
<path fill="#ffffff" opacity="0.82" d=" M 3.96 7.89 C 1.95 5.45 6.60 1.21 7.54 5.25 C 7.12 5.73 6.30 6.69 5.89 7.18 C 7.30 8.46 8.60 9.87 9.93 11.23 C 10.39 10.73 11.32 9.74 11.79 9.24 C 13.54 10.08 13.76 11.10 12.44 12.31 C 12.88 12.80 14.29 13.31 13.46 14.09 C 9.29 14.49 6.02 11.10 3.96 7.89 Z" />
</g>
</svg>
